<svg width="23" height="26" viewBox="0 0 23 26" fill="none" xmlns="http://www.w3.org/2000/svg">
<path d="M11.9611 1.05652C17.7603 1.05652 22.4611 5.7573 22.4611 11.5565C22.4611 15.3156 20.5227 18.4453 18.4728 20.7137C16.4138 22.9922 14.1178 24.5398 13.1174 25.163C12.7709 25.381 12.3705 25.4979 11.9611 25.4979C11.5516 25.4979 11.1504 25.3821 10.8039 25.1639V25.163C9.80378 24.5397 7.50805 22.9918 5.4494 20.7137C3.39954 18.4453 1.46112 15.3156 1.46112 11.5565C1.46112 5.7573 6.1619 1.05652 11.9611 1.05652Z" fill="black" stroke="#CAEE12"/>
<path d="M10.2634 7.04745C10.0053 7.08737 9.84358 7.13383 9.64823 7.30212C9.37191 7.54061 9.31837 7.79754 9.29666 8.15677C9.27496 8.51599 9.65433 8.98594 10.1404 9.08364C10.7884 9.21391 11.3708 8.5743 11.406 7.99237C11.4411 7.41081 11.2496 7.24406 10.861 7.08391C10.6455 6.99508 10.4942 7.01192 10.2634 7.04745Z" fill="#94D460"/>
<path d="M8.45738 9.62509C8.76362 9.96285 8.7252 10.5994 8.7252 10.5994C8.7252 10.5994 8.70526 11.0125 8.36123 11.2162C8.03491 11.4094 7.68406 11.6006 7.35856 11.581C6.99905 11.5592 6.58605 11.4286 6.42055 10.8854C6.28923 10.4547 6.43071 9.51224 6.8422 9.31395C7.29861 9.09381 8.15112 9.28698 8.45738 9.62509Z" fill="#CDE9B5"/>
<path d="M14.9005 8.3671C14.7616 8.76622 14.2232 9.02696 14.2232 9.02696C14.2232 9.02696 13.8761 9.19996 13.5547 9.01824C13.2498 8.84571 12.7807 8.42159 12.7647 8.07184C12.7496 7.74171 12.873 7.37297 13.3117 7.14286C13.6846 6.94723 14.2329 7.04228 14.5802 7.28037C14.9654 7.5446 15.0394 7.96762 14.9005 8.3671Z" fill="#699B39"/>
<path d="M17.5859 10.7567C17.4376 11.1513 17.3979 11.255 17.1388 11.4561C16.8417 11.6866 16.5117 11.7254 16.2102 11.7132C15.8569 11.6993 15.3871 11.141 15.3776 10.798C15.3687 10.4747 15.5542 9.82069 16.0024 9.58653C16.3834 9.38746 16.9361 9.47033 17.2827 9.69735C17.6673 9.94908 17.734 10.3624 17.5859 10.7567Z" fill="#39561B"/>
<path d="M13.6564 11.1454C13.2166 10.8706 12.9036 10.6752 12.3451 10.5955C11.4909 10.474 10.9571 10.7049 10.198 11.1113C9.46081 11.5057 9.00987 11.8172 8.62116 12.5528C8.34085 13.083 8.25269 13.4442 8.25736 14.0431C8.25767 14.0848 8.25776 14.1249 8.25788 14.1644C8.25905 14.5844 8.25988 14.892 8.51217 15.2577C8.75343 15.6073 8.99026 15.7672 9.39775 15.8953C9.73678 16.0018 9.96101 16.0108 10.3075 15.932C10.6243 15.8597 10.967 15.619 11.1126 15.3625C11.2673 15.0899 11.5708 14.9731 11.7634 14.9343C11.8755 14.9114 12.0264 14.9282 12.1429 14.9496C12.4036 14.9971 12.5856 15.0318 12.7654 15.2246C13.0565 15.5375 12.9448 15.6258 13.3523 15.7535C13.6913 15.86 13.9103 15.841 14.2621 15.7902C14.7866 15.7146 15.159 15.6407 15.4994 15.2381C15.8132 14.8671 15.8437 14.5323 15.8511 14.048C15.8607 13.4155 15.6526 13.0519 15.3051 12.521C14.9077 11.9137 14.2054 11.4832 13.8746 11.2808L13.8372 11.2576C13.7742 11.2187 13.7142 11.1815 13.6564 11.1454Z" fill="#263E10"/>
</svg>
